# xmcd CD database file
#
# Track frame offsets:
#	150
#	35400
#	57734
#	80088
#	96074
#	118317
#	134146
#	152893
#
# Disc length: 2280 seconds
#
# Revision: 0
# Processed by: cddbd v1.5.2PL0 Copyright (c) Steve Scherf et al.
# Submitted via: CDex 1.70beta2
#
DISCID=7708e608
DTITLE=Gabriela Anders  - Cool Again
DYEAR=2014
DGENRE=Jazz
TTITLE0=Not True
TTITLE1=Pearls
TTITLE2=Corcovado
TTITLE3=Cool Again
TTITLE4=Sto Male
TTITLE5=Crave
TTITLE6=Urubu
TTITLE7=You Were Meant for Me
EXTD=YEAR: 2014
EXTT0=
EXTT1=
EXTT2=
EXTT3=
EXTT4=
EXTT5=
EXTT6=
EXTT7=
PLAYORDER=
